<mxfile host="app.diagrams.net" modified="2023-06-25T02:03:50.927Z" agent="Mozilla/5.0 (Windows NT 10.0; Win64; x64) AppleWebKit/537.36 (KHTML, like Gecko) Chrome/114.0.0.0 Safari/537.36" etag="dJieiLlkntH1BgKs1vJ2" version="21.3.2" type="github">
  <diagram id="C5RBs43oDa-KdzZeNtuy" name="Page-1">
    <mxGraphModel dx="1434" dy="780" grid="1" gridSize="10" guides="1" tooltips="1" connect="1" arrows="1" fold="1" page="1" pageScale="1" pageWidth="827" pageHeight="1169" math="0" shadow="0">
      <root>
        <mxCell id="WIyWlLk6GJQsqaUBKTNV-0" />
        <mxCell id="WIyWlLk6GJQsqaUBKTNV-1" parent="WIyWlLk6GJQsqaUBKTNV-0" />
        <mxCell id="S7R5LhRLkhDdaDhESsa2-0" value="first part" style="swimlane;whiteSpace=wrap;html=1;" vertex="1" parent="WIyWlLk6GJQsqaUBKTNV-1">
          <mxGeometry x="50" y="50" width="310" height="270" as="geometry" />
        </mxCell>
        <mxCell id="S7R5LhRLkhDdaDhESsa2-5" style="edgeStyle=orthogonalEdgeStyle;rounded=0;orthogonalLoop=1;jettySize=auto;html=1;" edge="1" parent="S7R5LhRLkhDdaDhESsa2-0" source="S7R5LhRLkhDdaDhESsa2-1" target="S7R5LhRLkhDdaDhESsa2-3">
          <mxGeometry relative="1" as="geometry" />
        </mxCell>
        <mxCell id="S7R5LhRLkhDdaDhESsa2-1" value="配置需要拦截的类或者包" style="rounded=0;whiteSpace=wrap;html=1;" vertex="1" parent="S7R5LhRLkhDdaDhESsa2-0">
          <mxGeometry x="90" y="50" width="120" height="60" as="geometry" />
        </mxCell>
        <mxCell id="S7R5LhRLkhDdaDhESsa2-3" value="监控配置的类或者包，将监控的时间显示在tab栏中" style="rounded=0;whiteSpace=wrap;html=1;" vertex="1" parent="S7R5LhRLkhDdaDhESsa2-0">
          <mxGeometry x="90" y="190" width="120" height="60" as="geometry" />
        </mxCell>
      </root>
    </mxGraphModel>
  </diagram>
</mxfile>
